<svg width="60" height="56" viewBox="0 0 60 56" fill="none" xmlns="http://www.w3.org/2000/svg">
<path d="M5.2085 46.9167C6.36882 46.9167 7.48162 47.3776 8.30209 48.1981C9.12256 49.0186 9.5835 50.1313 9.5835 51.2917C9.5835 52.452 9.12256 53.5648 8.30209 54.3853C7.48162 55.2057 6.36882 55.6667 5.2085 55.6667C4.04817 55.6667 2.93538 55.2057 2.1149 54.3853C1.29443 53.5648 0.833496 52.452 0.833496 51.2917C0.833496 50.1313 1.29443 49.0186 2.1149 48.1981C2.93538 47.3776 4.04817 46.9167 5.2085 46.9167ZM19.7918 38.1667C21.7257 38.1667 23.5804 38.9349 24.9478 40.3023C26.3153 41.6698 27.0835 43.5245 27.0835 45.4583C27.0835 47.3922 26.3153 49.2469 24.9478 50.6143C23.5804 51.9818 21.7257 52.75 19.7918 52.75C17.858 52.75 16.0033 51.9818 14.6358 50.6143C13.2684 49.2469 12.5002 47.3922 12.5002 45.4583C12.5002 43.5245 13.2684 41.6698 14.6358 40.3023C16.0033 38.9349 17.858 38.1667 19.7918 38.1667ZM37.2918 35.25C33.821 35.25 30.671 33.7917 28.5418 31.3125C26.4127 33.7917 23.2627 35.25 19.7918 35.25C14.0752 35.25 9.321 31.1375 8.32933 25.7417C3.95433 24.05 0.833496 19.7917 0.833496 14.8333C0.833496 11.7391 2.06266 8.77168 4.25058 6.58375C6.43851 4.39583 9.40597 3.16667 12.5002 3.16667C13.2585 3.16667 13.9585 3.25417 14.746 3.37083C16.8752 1.44583 19.646 0.25 22.7085 0.25C26.1793 0.25 29.3293 1.70833 31.4585 4.1875C33.5877 1.70833 36.7377 0.25 40.2085 0.25C45.9252 0.25 50.6793 4.3625 51.671 9.75833C56.046 11.45 59.1668 15.7083 59.1668 20.6667C59.1668 23.7609 57.9377 26.7283 55.7497 28.9162C53.5618 31.1042 50.5944 32.3333 47.5002 32.3333L45.2543 32.1292C43.1252 34.0542 40.3543 35.25 37.2918 35.25Z" fill="white"/>
</svg>
