<svg width="70" height="41" viewBox="0 0 70 41" fill="none" xmlns="http://www.w3.org/2000/svg">
<path d="M55.4167 35.0833V40.9166H20.4167V35.0833C20.4167 35.0833 20.4167 23.4166 37.9167 23.4166C55.4167 23.4166 55.4167 35.0833 55.4167 35.0833ZM46.6667 8.83332C46.6667 7.10273 46.1535 5.41101 45.192 3.97208C44.2306 2.53315 42.864 1.41164 41.2651 0.749371C39.6663 0.0871043 37.907 -0.086175 36.2096 0.251446C34.5123 0.589066 32.9532 1.42242 31.7295 2.64613C30.5058 3.86984 29.6724 5.42894 29.3348 7.12628C28.9972 8.82361 29.1705 10.5829 29.8327 12.1818C30.495 13.7806 31.6165 15.1472 33.0554 16.1087C34.4944 17.0701 36.1861 17.5833 37.9167 17.5833C40.2373 17.5833 42.4629 16.6614 44.1039 15.0205C45.7448 13.3796 46.6667 11.154 46.6667 8.83332ZM56 23.5917C57.5943 25.0625 58.8797 26.8363 59.7811 28.8093C60.6825 30.7824 61.1818 32.9152 61.25 35.0833V40.9166H70V35.0833C70 35.0833 70 25.0208 56 23.5917ZM52.5 0.0833163C51.6188 0.0838437 50.743 0.221605 49.9042 0.491649C51.6106 2.93864 52.5255 5.8501 52.5255 8.83332C52.5255 11.8165 51.6106 14.728 49.9042 17.175C50.743 17.445 51.6188 17.5828 52.5 17.5833C54.8206 17.5833 57.0462 16.6614 58.6872 15.0205C60.3281 13.3796 61.25 11.154 61.25 8.83332C61.25 6.51267 60.3281 4.28708 58.6872 2.64613C57.0462 1.00519 54.8206 0.0833163 52.5 0.0833163ZM23.3333 14.6666H14.5833V5.91665H8.75V14.6666H0V20.5H8.75V29.25H14.5833V20.5H23.3333V14.6666Z" fill="white"/>
</svg>
