<svg width="26" height="26" viewBox="0 0 26 26" fill="none" xmlns="http://www.w3.org/2000/svg">
<path d="M13.2878 2.13281C7.55859 2.13281 2.87109 6.8099 2.87109 12.5703C2.87109 17.7786 6.68359 22.1016 11.6628 22.8828V15.5911H9.01693V12.5703H11.6628V10.2682C11.6628 7.65365 13.2148 6.21615 15.6003 6.21615C16.7357 6.21615 17.9232 6.41406 17.9232 6.41406V8.98698H16.6107C15.319 8.98698 14.9128 9.78906 14.9128 10.612V12.5703H17.8086L17.3398 15.5911H14.9128V22.8828C17.3674 22.4951 19.6026 21.2427 21.2148 19.3516C22.827 17.4605 23.71 15.0554 23.7044 12.5703C23.7044 6.8099 19.0169 2.13281 13.2878 2.13281Z" fill="white"/>
</svg>
