<svg width="26" height="26" viewBox="0 0 26 26" fill="none" xmlns="http://www.w3.org/2000/svg">
<path d="M8.88542 2.4209H17.6354C20.9688 2.4209 23.6771 5.12923 23.6771 8.46257V17.2126C23.6771 18.8149 23.0406 20.3516 21.9075 21.4847C20.7745 22.6177 19.2378 23.2542 17.6354 23.2542H8.88542C5.55208 23.2542 2.84375 20.5459 2.84375 17.2126V8.46257C2.84375 6.86022 3.48028 5.32349 4.61331 4.19046C5.74635 3.05743 7.28307 2.4209 8.88542 2.4209M8.67708 4.50423C7.68252 4.50423 6.72869 4.89932 6.02543 5.60258C5.32217 6.30584 4.92708 7.25967 4.92708 8.25423V17.4209C4.92708 19.4938 6.60417 21.1709 8.67708 21.1709H17.8437C18.8383 21.1709 19.7921 20.7758 20.4954 20.0725C21.1987 19.3693 21.5937 18.4155 21.5937 17.4209V8.25423C21.5937 6.18131 19.9167 4.50423 17.8437 4.50423H8.67708ZM18.7292 6.06673C19.0745 6.06673 19.4057 6.20392 19.6499 6.4481C19.8941 6.69229 20.0312 7.02348 20.0312 7.36881C20.0312 7.71415 19.8941 8.04534 19.6499 8.28953C19.4057 8.53371 19.0745 8.6709 18.7292 8.6709C18.3838 8.6709 18.0526 8.53371 17.8085 8.28953C17.5643 8.04534 17.4271 7.71415 17.4271 7.36881C17.4271 7.02348 17.5643 6.69229 17.8085 6.4481C18.0526 6.20392 18.3838 6.06673 18.7292 6.06673ZM13.2604 7.62923C14.6418 7.62923 15.9665 8.17797 16.9433 9.15472C17.92 10.1315 18.4687 11.4562 18.4687 12.8376C18.4687 14.2189 17.92 15.5437 16.9433 16.5204C15.9665 17.4972 14.6418 18.0459 13.2604 18.0459C11.8791 18.0459 10.5543 17.4972 9.57757 16.5204C8.60082 15.5437 8.05208 14.2189 8.05208 12.8376C8.05208 11.4562 8.60082 10.1315 9.57757 9.15472C10.5543 8.17797 11.8791 7.62923 13.2604 7.62923M13.2604 9.71256C12.4316 9.71256 11.6368 10.0418 11.0507 10.6279C10.4647 11.2139 10.1354 12.0088 10.1354 12.8376C10.1354 13.6664 10.4647 14.4612 11.0507 15.0473C11.6368 15.6333 12.4316 15.9626 13.2604 15.9626C14.0892 15.9626 14.8841 15.6333 15.4701 15.0473C16.0562 14.4612 16.3854 13.6664 16.3854 12.8376C16.3854 12.0088 16.0562 11.2139 15.4701 10.6279C14.8841 10.0418 14.0892 9.71256 13.2604 9.71256Z" fill="white"/>
</svg>
