<svg width="60" height="65" viewBox="0 0 60 65" fill="none" xmlns="http://www.w3.org/2000/svg">
<path d="M30.1168 7.79167L22.796 15.0833H37.3793L30.1168 7.79167ZM6.66683 20.9167V58.8333H53.3335V20.9167H6.66683ZM30.0002 0.5L44.5835 15.0833H53.3335C54.8806 15.0833 56.3643 15.6979 57.4583 16.7919C58.5522 17.8858 59.1668 19.3696 59.1668 20.9167V58.8333C59.1668 60.3804 58.5522 61.8642 57.4583 62.9581C56.3643 64.0521 54.8806 64.6667 53.3335 64.6667H6.66683C5.11973 64.6667 3.636 64.0521 2.54204 62.9581C1.44808 61.8642 0.833496 60.3804 0.833496 58.8333V20.9167C0.833496 19.3696 1.44808 17.8858 2.54204 16.7919C3.636 15.6979 5.11973 15.0833 6.66683 15.0833H15.4168L30.0002 0.5ZM15.4168 53V41.3333H30.0002V53H15.4168ZM35.8335 50.0833V29.6667H47.5002V50.0833H35.8335ZM12.5002 35.5V26.75H27.0835V35.5H12.5002Z" fill="#EB581F"/>
</svg>
