<svg width="63" height="62" viewBox="0 0 63 62" fill="none" xmlns="http://www.w3.org/2000/svg">
<path d="M50.5001 39.7917V29.5834C50.5001 28.8098 50.1928 28.0679 49.6459 27.521C49.0989 26.974 48.357 26.6667 47.5835 26.6667H44.6668C51.2001 21.9709 52.7168 12.8709 48.021 6.25002C43.3251 -0.224976 34.2251 -1.74164 27.6626 2.95419C25.7085 4.35419 24.1335 6.25002 23.0835 8.37919C16.2293 4.15002 7.24595 6.25002 3.01679 13.1625C-1.18321 20.0167 0.916787 29 7.80012 33.2292C8.41262 33.5792 9.02512 33.9584 9.66679 34.1917V58.75C9.66679 59.5236 9.97408 60.2654 10.5211 60.8124C11.068 61.3594 11.8099 61.6667 12.5835 61.6667H47.5835C48.357 61.6667 49.0989 61.3594 49.6459 60.8124C50.1928 60.2654 50.5001 59.5236 50.5001 58.75V48.5417L62.1668 60.2084V28.125L50.5001 39.7917ZM35.9168 9.16669C37.4639 9.16669 38.9476 9.78127 40.0416 10.8752C41.1355 11.9692 41.7501 13.4529 41.7501 15C41.7501 16.5471 41.1355 18.0309 40.0416 19.1248C38.9476 20.2188 37.4639 20.8334 35.9168 20.8334C34.3697 20.8334 32.886 20.2188 31.792 19.1248C30.698 18.0309 30.0835 16.5471 30.0835 15C30.0835 13.4529 30.698 11.9692 31.792 10.8752C32.886 9.78127 34.3697 9.16669 35.9168 9.16669ZM15.5001 15C17.0472 15 18.5309 15.6146 19.6249 16.7086C20.7189 17.8025 21.3335 19.2863 21.3335 20.8334C21.3335 22.3805 20.7189 23.8642 19.6249 24.9581C18.5309 26.0521 17.0472 26.6667 15.5001 26.6667C13.953 26.6667 12.4693 26.0521 11.3753 24.9581C10.2814 23.8642 9.66679 22.3805 9.66679 20.8334C9.66679 19.2863 10.2814 17.8025 11.3753 16.7086C12.4693 15.6146 13.953 15 15.5001 15Z" fill="#11A0DD"/>
</svg>
