<svg width="60" height="59" viewBox="0 0 60 59" fill="none" xmlns="http://www.w3.org/2000/svg">
<path d="M27.0835 20.75H32.9168V14.9166H27.0835M30.0002 52.8333C17.1377 52.8333 6.66683 42.3625 6.66683 29.5C6.66683 16.6375 17.1377 6.16665 30.0002 6.16665C42.8627 6.16665 53.3335 16.6375 53.3335 29.5C53.3335 42.3625 42.8627 52.8333 30.0002 52.8333ZM30.0002 0.333313C26.1699 0.333313 22.3772 1.08773 18.8386 2.55349C15.2999 4.01926 12.0846 6.16766 9.37621 8.87603C3.9064 14.3458 0.833496 21.7645 0.833496 29.5C0.833496 37.2355 3.9064 44.6541 9.37621 50.1239C12.0846 52.8323 15.2999 54.9807 18.8386 56.4465C22.3772 57.9122 26.1699 58.6666 30.0002 58.6666C37.7356 58.6666 45.1543 55.5937 50.6241 50.1239C56.0939 44.6541 59.1668 37.2355 59.1668 29.5C59.1668 25.6698 58.4124 21.877 56.9466 18.3384C55.4809 14.7997 53.3325 11.5844 50.6241 8.87603C47.9157 6.16766 44.7004 4.01926 41.1618 2.55349C37.6231 1.08773 33.8304 0.333313 30.0002 0.333313ZM27.0835 44.0833H32.9168V26.5833H27.0835V44.0833Z" fill="white"/>
</svg>
